<?xml version="1.0" encoding="UTF-8"?>
<svg xmlns="http://www.w3.org/2000/svg" width="180" height="230" viewBox="0 0 180 230">
	<g transform="translate(-175.32783,-131.13109)">
		<g transform="translate(-18.165054,-75.082227)">
			<path
				fill="#ffffff"
				d="m 227.40099,267.05402 c 6.45569,7.71478 15.23315,9.38219 19.49447,5.81949 4.26133,-3.56271 7.55961,-12.53849 17.96582,-9.08497 -4.80883,-12.75572 9.52679,-28.22162 23.54086,-21.59068 3.74222,-17.29284 38.97513,-18.21764 41.42693,2.79631 31.42407,-8.8702 37.62135,56.10121 0,51.16226 -0.55543,17.04658 -31.39676,23.43105 -35.00576,7.24972 -6.22585,13.37989 -31.15308,15.19831 -33.76294,-2.88435 -16.74436,7.33033 -31.58933,-12.95522 -33.65938,-33.46778 z"
			/>
			<path
				fill="#800000"
				d="m 309.69654,231.69965 c -4.37979,-0.10693 -8.80969,0.91553 -12.21875,2.84375 -3.40906,1.92822 -5.76454,4.64453 -6.53125,8.1875 -8.0298,28.80395 27.12564,23.03434 18.93613,5.03151 l 3.06106,-1.66761 c 10.04869,23.44669 -32.04993,29.09391 -25.46594,-1.6764 -12.08404,-5.71772 -24.16163,7.87548 -20.15625,18.5 0.33026,0.8686 0.11613,1.91887 -0.52783,2.58885 -0.64395,0.66997 -1.68492,0.92552 -2.56592,0.6299 -4.52361,-1.50125 -6.66773,-0.45854 -8.90625,1.4375 -2.23852,1.89604 -4.01668,4.95454 -6.6875,7.1875 -2.91591,2.43786 -7.0582,2.89529 -11.15625,1.8125 -2.09206,-0.55276 -4.20499,-1.5392 -6.25,-2.90625 1.80893,7.31123 5.18157,14.15434 9.46875,18.90625 5.61226,6.22063 12.13989,8.9096 19.5,5.6875 -2.272,-14.96953 20.69562,-22.16038 22.71776,-4.00084 l -2.85405,0.19367 c -2.0169,-14.01234 -19.94976,-8.56437 -16.42621,5.71342 0.95971,3.88883 2.25389,6.56266 4.5625,8.34375 2.30861,1.78109 5.36496,2.72367 8.59375,2.78125 6.45757,0.11515 13.33859,-3.35221 15.9375,-8.9375 0.42829,-0.93332 1.487,-1.53501 2.50803,-1.42537 1.02103,0.10964 1.92785,0.92239 2.14822,1.92537 0.73212,3.28252 2.62377,5.17881 5.4375,6.34375 2.81373,1.16494 6.59524,1.36361 10.3125,0.59375 3.71726,-0.76986 7.36262,-2.48382 10,-4.875 2.63738,-2.39118 4.2602,-5.35157 4.375,-8.875 -20.40344,-8.93813 -6.01105,-32.48351 7.41006,-24.7981 l -0.57248,2.56955 c -10.3894,-6.73983 -23.7222,14.73602 -4.05633,19.8848 8.72136,1.14494 14.33889,-1.60941 18.0625,-6.25 3.72361,-4.64059 5.42374,-11.44993 5.0625,-18.21875 -0.36124,-6.76882 -2.78832,-13.41317 -6.6875,-17.625 -3.89918,-4.21183 -9.01651,-6.24772 -16.09375,-4.25 -1.36364,0.36686 -2.92742,-0.69146 -3.09375,-2.09375 -0.5339,-4.576 -2.75732,-7.74997 -5.96875,-10 -3.21143,-2.25003 -7.4939,-3.45554 -11.875,-3.5625 z"
			/>
		</g>
		<g transform="matrix(-1,0,0,1,568.64199,26.642082)">
			<path
				fill="#ffffff"
				d="m 227.40099,267.05402 c 6.45569,7.71478 15.23315,9.38219 19.49447,5.81949 4.26133,-3.56271 7.55961,-12.53849 17.96582,-9.08497 -4.80883,-12.75572 9.52679,-28.22162 23.54086,-21.59068 3.74222,-17.29284 38.97513,-18.21764 41.42693,2.79631 31.42407,-8.8702 37.62135,56.10121 0,51.16226 -0.55543,17.04658 -31.39676,23.43105 -35.00576,7.24972 -6.22585,13.37989 -31.15308,15.19831 -33.76294,-2.88435 -16.74436,7.33033 -31.58933,-12.95522 -33.65938,-33.46778 z"
			/>
			<path
				fill="#800000"
				d="m 309.69654,231.69965 c -4.37979,-0.10693 -8.80969,0.91553 -12.21875,2.84375 -3.40906,1.92822 -5.76454,4.64453 -6.53125,8.1875 -8.0298,28.80395 27.12564,23.03434 18.93613,5.03151 l 3.06106,-1.66761 c 10.04869,23.44669 -32.04993,29.09391 -25.46594,-1.6764 -12.08404,-5.71772 -24.16163,7.87548 -20.15625,18.5 0.33026,0.8686 0.11613,1.91887 -0.52783,2.58885 -0.64395,0.66997 -1.68492,0.92552 -2.56592,0.6299 -4.52361,-1.50125 -6.66773,-0.45854 -8.90625,1.4375 -2.23852,1.89604 -4.01668,4.95454 -6.6875,7.1875 -2.91591,2.43786 -7.0582,2.89529 -11.15625,1.8125 -2.09206,-0.55276 -4.20499,-1.5392 -6.25,-2.90625 1.80893,7.31123 5.18157,14.15434 9.46875,18.90625 5.61226,6.22063 12.13989,8.9096 19.5,5.6875 -2.272,-14.96953 20.69562,-22.16038 22.71776,-4.00084 l -2.85405,0.19367 c -2.0169,-14.01234 -19.94976,-8.56437 -16.42621,5.71342 0.95971,3.88883 2.25389,6.56266 4.5625,8.34375 2.30861,1.78109 5.36496,2.72367 8.59375,2.78125 6.45757,0.11515 13.33859,-3.35221 15.9375,-8.9375 0.42829,-0.93332 1.487,-1.53501 2.50803,-1.42537 1.02103,0.10964 1.92785,0.92239 2.14822,1.92537 0.73212,3.28252 2.62377,5.17881 5.4375,6.34375 2.81373,1.16494 6.59524,1.36361 10.3125,0.59375 3.71726,-0.76986 7.36262,-2.48382 10,-4.875 2.63738,-2.39118 4.2602,-5.35157 4.375,-8.875 -20.40344,-8.93813 -6.01105,-32.48351 7.41006,-24.7981 l -0.57248,2.56955 c -10.3894,-6.73983 -23.7222,14.73602 -4.05633,19.8848 8.72136,1.14494 14.33889,-1.60941 18.0625,-6.25 3.72361,-4.64059 5.42374,-11.44993 5.0625,-18.21875 -0.36124,-6.76882 -2.78832,-13.41317 -6.6875,-17.625 -3.89918,-4.21183 -9.01651,-6.24772 -16.09375,-4.25 -1.36364,0.36686 -2.92742,-0.69146 -3.09375,-2.09375 -0.5339,-4.576 -2.75732,-7.74997 -5.96875,-10 -3.21143,-2.25003 -7.4939,-3.45554 -11.875,-3.5625 z"
			/>
		</g>
	</g>
</svg>
